HIERARCHY
ROOT Hips
{
 OFFSET 0.000000 0.000000 0.000000
 CHANNELS 6 Xposition Yposition Zposition Yrotation Xrotation Zrotation
 JOINT Chest
 {
  OFFSET 0.000000 9.585900 0.002600
  CHANNELS 3 Yrotation Xrotation Zrotation
  JOINT Chest2
  {
   OFFSET 0.000000 9.601200 -0.005300
   CHANNELS 3 Yrotation Xrotation Zrotation
   JOINT Chest3
   {
    OFFSET 0.000000 9.561800 0.000000
    CHANNELS 3 Yrotation Xrotation Zrotation
    JOINT Chest4
    {
     OFFSET 0.000000 9.552100 0.000000
     CHANNELS 3 Yrotation Xrotation Zrotation
     JOINT Neck
     {
      OFFSET 0.000000 14.453000 0.000000
      CHANNELS 3 Yrotation Xrotation Zrotation
      JOINT Head
      {
       OFFSET 0.000000 8.936500 -0.011300
       CHANNELS 3 Yrotation Xrotation Zrotation
       End Site
       {
        OFFSET 0.000000 17.073600 -0.006000
       }
      }
     }
     JOINT RightCollar
     {
      OFFSET -2.921100 9.558500 0.000000
      CHANNELS 3 Yrotation Xrotation Zrotation
      JOINT RightShoulder
      {
       OFFSET -13.519700 0.000000 0.000000
       CHANNELS 3 Yrotation Xrotation Zrotation
       JOINT RightElbow
       {
        OFFSET 0.000000 -29.696600 0.000000
        CHANNELS 3 Yrotation Xrotation Zrotation
        JOINT RightWrist
        {
         OFFSET 0.000000 -24.004700 0.000000
         CHANNELS 3 Yrotation Xrotation Zrotation
         End Site
         {
          OFFSET 0.000000 -17.728500 0.000000
         }
        }
       }
      }
     }
     JOINT LeftCollar
     {
      OFFSET 2.921100 9.558500 0.000000
      CHANNELS 3 Yrotation Xrotation Zrotation
      JOINT LeftShoulder
      {
       OFFSET 13.519700 0.000000 0.000000
       CHANNELS 3 Yrotation Xrotation Zrotation
       JOINT LeftElbow
       {
        OFFSET 0.000000 -29.696600 0.000000
        CHANNELS 3 Yrotation Xrotation Zrotation
        JOINT LeftWrist
        {
         OFFSET 0.000000 -24.004700 0.000000
         CHANNELS 3 Yrotation Xrotation Zrotation
         End Site
         {
          OFFSET 0.000000 -17.728500 0.000000
         }
        }
       }
      }
     }
    }
   }
  }
 }
 JOINT RightHip
 {
  OFFSET -7.771700 -0.012900 -0.001300
  CHANNELS 3 Yrotation Xrotation Zrotation
  JOINT RightKnee
  {
   OFFSET 0.000000 -40.869800 0.001200
   CHANNELS 3 Yrotation Xrotation Zrotation
   JOINT RightAnkle
   {
    OFFSET 0.000000 -39.717900 0.002100
    CHANNELS 3 Yrotation Xrotation Zrotation
    JOINT RightToe
    {
     OFFSET 0.000000 -4.965400 11.033500
     CHANNELS 3 Yrotation Xrotation Zrotation
     End Site
     {
      OFFSET 0.000000 -1.423100 5.872300
     }
    }
   }
  }
 }
 JOINT LeftHip
 {
  OFFSET 7.771700 -0.012900 -0.001300
  CHANNELS 3 Yrotation Xrotation Zrotation
  JOINT LeftKnee
  {
   OFFSET 0.000000 -40.869800 0.001200
   CHANNELS 3 Yrotation Xrotation Zrotation
   JOINT LeftAnkle
   {
    OFFSET 0.000000 -39.717900 0.002100
    CHANNELS 3 Yrotation Xrotation Zrotation
    JOINT LeftToe
    {
     OFFSET 0.000000 -4.965400 11.033500
     CHANNELS 3 Yrotation Xrotation Zrotation
     End Site
     {
      OFFSET 0.000000 -1.423100 5.872300
     }
    }
   }
  }
 }
}
MOTION
Frames: 9
Frame Time: 0.008333
0.000000 85.388000 0.000000 0.000000 -5.767877 0.000000 0.000000 11.653817 0.000000 0.000000 -5.885947 0.000000 0.000000 -0.000000 0.000000 0.000000 -0.000000 0.000000 0.000000 12.528835 0.000000 0.000000 0.711642 0.000000 0.000000 -0.000000 0.000000 0.000000 0.000000 -90.000000 0.000000 -2.309062 0.000000 0.000000 2.309062 0.000000 0.000000 -0.000000 0.000000 0.000000 -0.000000 90.000000 0.000000 -2.309062 0.000000 0.000000 2.309062 0.000000 0.000000 8.520406 0.000000 0.000000 1.905762 0.000000 -0.000000 -4.658285 0.000000 0.000000 -0.000000 0.000000 0.000000 8.520406 0.000000 0.000000 1.905762 0.000000 -0.000000 -4.658285 0.000000 0.000000 -0.000000 0.000000
-215.170028 57.488925 132.699553 178.624167 -31.711853 -0.771651 1.464147 20.905355 3.393373 0.109272 2.756707 0.445772 0.169935 4.419771 0.648166 1.073073 17.782851 2.921158 2.884853 15.743299 -1.202784 5.806366 -6.443498 -3.279397 2.926081 -0.613074 -1.925453 11.563275 -18.156979 -15.506803 153.969831 -80.934654 -119.760037 14.909686 -17.616335 -49.894632 -7.013873 -3.710005 -2.228254 -2.268121 -13.652655 -2.619021 -15.002650 -78.747290 -17.656352 -4.841019 -13.900191 34.731493 5.715631 -44.609748 -5.520645 -11.729295 69.185150 -15.833306 -7.149005 26.373053 -9.846437 -2.434015 -16.011669 18.393016 -6.560084 -42.077643 0.686813 32.023439 69.898176 33.717330 -15.007044 2.887403 -4.654003 0.183019 0.206977 0.087497
-215.166784 57.489351 132.708159 178.644117 -31.718805 -0.808845 1.453611 20.854401 3.368212 0.104284 2.732893 0.418766 0.179717 4.476739 0.702071 1.064868 17.753877 2.863472 2.490339 15.847387 -1.117368 5.036704 -6.275550 -2.973709 2.946631 -0.596580 -1.883904 11.774769 -18.148473 -15.694298 154.196862 -80.977289 -120.064558 14.895996 -17.651123 -49.963169 -7.048794 -3.731107 -2.221951 -2.440454 -13.690865 -2.524765 -14.806688 -78.752989 -17.828256 -4.842181 -13.963033 34.778520 5.669775 -44.597378 -5.491302 -11.768721 69.165761 -15.842160 -7.154882 26.362872 -9.884511 -2.418393 -15.998441 18.394858 -6.609339 -42.071200 0.760392 31.962818 69.901167 33.625849 -15.018865 2.907258 -4.650722 0.192964 0.203630 0.095831
-215.166957 57.491020 132.715379 178.662211 -31.745049 -0.824564 1.445824 20.816289 3.320224 0.105561 2.730608 0.413007 0.181819 4.473208 0.692767 1.073295 17.763662 2.849180 2.093795 15.936699 -1.024180 4.262054 -6.132252 -2.654778 2.959627 -0.624647 -1.898746 11.979881 -18.122973 -15.858313 154.635095 -81.030483 -120.556677 14.888959 -17.688660 -50.057518 -7.086819 -3.746492 -2.212700 -2.615195 -13.755038 -2.399557 -14.574476 -78.760073 -18.062255 -4.847616 -14.035982 34.832241 5.630678 -44.556149 -5.485192 -11.786583 69.140620 -15.833788 -7.174838 26.333498 -9.922855 -2.388795 -15.970143 18.388353 -6.634106 -42.046090 0.784037 31.926523 69.900782 33.562074 -15.002512 2.923931 -4.627019 0.177445 0.202532 0.089037
-215.165839 57.494425 132.720019 178.714687 -31.795778 -0.865420 1.410392 20.839866 3.312802 0.106210 2.729603 0.410531 0.183801 4.457062 0.673758 1.079860 17.776598 2.850340 1.684873 15.980571 -0.977371 3.492467 -6.011972 -2.326655 2.962785 -0.680393 -1.959664 12.186773 -18.111940 -16.063274 155.267269 -81.091709 -121.212083 14.890780 -17.729413 -50.172167 -7.112396 -3.780214 -2.234837 -2.787276 -13.850283 -2.259839 -14.354183 -78.780378 -18.308674 -4.855179 -14.114301 34.887695 5.542763 -44.488028 -5.461950 -11.805794 69.115396 -15.827323 -7.206468 26.291069 -9.973448 -2.360738 -15.930120 18.387271 -6.690777 -41.994237 0.812220 31.882059 69.883701 33.487465 -14.961150 3.002211 -4.589671 0.128678 0.157081 0.069849
-215.166772 57.494450 132.729580 178.734481 -31.814312 -0.876888 1.403913 20.788304 3.255253 0.108170 2.725765 0.403781 0.186932 4.451257 0.662834 1.092395 17.822921 2.888067 1.282667 16.005274 -0.927621 2.735081 -5.913755 -1.991635 2.959987 -0.722319 -1.999044 12.390236 -18.124748 -16.320452 156.032429 -81.157587 -121.964593 14.898574 -17.766927 -50.294567 -7.125311 -3.779135 -2.223257 -2.944189 -13.985429 -2.136432 -14.191602 -78.820301 -18.520234 -4.864512 -14.188530 34.941049 5.488324 -44.450589 -5.458507 -11.812551 69.086088 -15.811409 -7.218165 26.243327 -10.016436 -2.342030 -15.883292 18.382126 -6.709162 -41.976942 0.821094 31.851593 69.870633 33.439092 -14.953873 3.023723 -4.574889 0.110275 0.156122 0.063709
-215.165042 57.497657 132.733294 178.750538 -31.873206 -0.900911 1.405346 20.775312 3.212357 0.110044 2.721162 0.396695 0.189749 4.444144 0.651229 1.097287 17.779452 2.794011 0.931843 16.104965 -0.738095 2.000783 -5.834507 -1.653685 2.956864 -0.679441 -1.908612 12.570355 -18.149327 -16.586358 156.848499 -81.222185 -122.732578 14.907925 -17.797050 -50.405932 -7.141536 -3.669483 -2.094607 -3.077887 -14.118671 -2.001592 -14.098098 -78.880193 -18.679881 -4.875382 -14.249668 34.987809 5.380206 -44.360915 -5.425288 -11.733202 69.048878 -15.721726 -7.199149 26.178198 -10.046006 -2.339234 -15.822732 18.365128 -6.731887 -41.918254 0.842334 31.834073 69.869898 33.412628 -14.943552 3.033544 -4.569859 0.109153 0.150124 0.058744
-215.162905 57.503078 132.732583 178.781673 -31.958607 -0.934246 1.388638 20.804477 3.182285 0.111584 2.746522 0.419084 0.188101 4.409249 0.612785 1.096017 17.754033 2.729154 0.587522 16.162765 -0.597776 1.304034 -5.769949 -1.319349 2.959421 -0.670880 -1.875213 12.720500 -18.181872 -16.845692 157.620782 -81.277900 -123.425564 14.914380 -17.819049 -50.489902 -7.158578 -3.639830 -2.055223 -3.189486 -14.204364 -1.818717 -14.070394 -78.958244 -18.779130 -4.891862 -14.295229 35.025959 5.277485 -44.249957 -5.394929 -11.698654 69.021552 -15.663666 -7.205144 26.126088 -10.078909 -2.336602 -15.779160 18.348036 -6.767586 -41.836641 0.870067 31.812761 69.876922 33.379399 -14.945767 3.053108 -4.569171 0.115408 0.134979 0.060803
-215.164386 57.503757 132.738411 178.801883 -31.990327 -0.940486 1.365455 20.784102 3.125285 0.116191 2.769174 0.441982 0.181885 4.377525 0.573923 1.093090 17.747709 2.690898 0.261325 16.194821 -0.483390 0.656979 -5.716476 -0.990704 2.969499 -0.682858 -1.874984 12.838897 -18.217935 -17.088618 158.277972 -81.317012 -123.984160 14.915566 -17.831415 -50.539214 -7.167881 -3.635411 -2.045207 -3.286054 -14.279155 -1.635800 -14.109587 -79.052917 -18.809560 -4.915961 -14.324820 35.060034 5.234022 -44.195789 -5.415484 -11.683610 69.002054 -15.612151 -7.236371 26.038837 -10.085478 -2.287450 -15.712251 18.292329 -6.782600 -41.809303 0.880504 31.799605 69.865380 33.337641 -14.952652 3.083944 -4.551620 0.108330 0.125846 0.058671
